# 3ds Max Wavefront OBJ Exporter v0.97b - (c)2007 guruware
# File Created: 23.01.2020 15:57:59

mtllib Low_Dress.mtl

#
# object Robe_Low
#

v  3.6953 96.4665 18.8115
v  -3.4688 97.0722 15.9438
v  -5.0651 77.4988 27.4843
v  6.0200 78.7984 26.9506
v  -7.2797 56.9310 34.6138
v  7.6175 57.8812 34.4151
v  8.6346 28.0681 40.4026
v  -7.4482 25.3332 41.6495
v  -9.1642 -0.1337 43.5605
v  -18.3001 24.1867 31.2261
v  -19.8108 -1.1410 31.9228
v  -17.5782 56.6632 27.6998
v  -13.1908 77.8518 22.1798
v  -6.5994 98.8070 13.8130
v  -25.2981 56.9484 24.7843
v  -30.5627 23.7954 27.6013
v  -32.6075 -0.4985 29.2145
v  -19.3506 79.0477 20.2964
v  -11.6548 98.5802 11.8954
v  -26.9402 57.1458 9.3562
v  -31.8798 21.8822 9.7709
v  -33.6976 -1.7326 8.2350
v  -22.1638 80.3285 6.7709
v  -15.8013 96.6785 4.8997
v  -34.7701 58.9856 0.8155
v  -40.7929 23.6469 1.8009
v  -43.5194 -0.3186 1.6938
v  -27.9232 81.7772 0.2064
v  -19.0219 96.0753 -1.1930
v  -35.4396 59.2036 -6.2484
v  -27.2497 60.4567 -14.2228
v  -31.2094 24.6231 -16.2706
v  -40.9638 23.9861 -5.9209
v  -31.5026 0.1937 -13.8693
v  -44.7179 -0.0192 -5.1649
v  -28.2335 81.3964 -5.0635
v  -21.6145 82.2895 -11.9622
v  -19.8981 94.9825 -5.0066
v  -15.7607 94.4828 -9.0123
v  -23.2276 61.6962 -27.4121
v  -28.2034 25.7169 -31.7022
v  -29.4187 -0.1928 -34.3310
v  -16.8978 84.1770 -20.9135
v  -10.7511 94.5774 -16.2159
v  -9.8736 58.9094 -31.0369
v  -12.1584 26.9313 -34.7456
v  -14.4465 -1.3849 -36.5622
v  -7.3446 82.5505 -24.2754
v  -4.9107 93.9060 -19.1192
v  4.3060 62.8549 -35.0235
v  2.9237 25.1811 -43.0123
v  3.2703 -1.6130 -47.5273
v  4.0855 82.3868 -26.3811
v  2.4898 94.4216 -19.5107
v  17.7460 58.6160 -29.1155
v  16.4056 27.5931 -34.4503
v  16.2411 1.1734 -36.4218
v  13.5778 85.4035 -20.9159
v  10.8353 95.0106 -15.9524
v  27.2902 60.6559 -22.8033
v  31.9506 28.2082 -27.6652
v  34.4407 -0.4131 -30.5770
v  20.4928 84.6461 -16.1336
v  16.1489 94.2334 -11.5698
v  29.1439 62.0192 -10.8611
v  33.9409 29.6670 -12.5887
v  36.6429 0.1528 -15.7507
v  24.5708 82.9750 -7.4233
v  19.0028 94.6756 -5.2965
v  35.9306 62.4293 0.2816
v  42.7630 31.5210 -0.5390
v  47.3543 1.5311 -1.8121
v  27.8996 81.5666 1.0959
v  19.5260 94.0632 2.0106
v  28.0035 60.0920 13.8393
v  32.7172 29.1485 13.3074
v  34.2734 0.6708 10.6981
v  23.0320 80.2460 12.8377
v  15.8855 93.8288 8.7508
v  26.5862 61.8079 25.7043
v  31.7763 31.4315 29.1208
v  35.3771 2.8880 29.3829
v  21.5716 78.7365 21.9114
v  13.4908 96.5814 14.7614
v  13.9716 56.8958 27.7352
v  14.8419 28.6447 31.9490
v  16.6622 0.0168 33.5303
v  11.5541 78.1874 23.1157
v  7.1892 93.7991 17.2257
v  9.8525 0.3915 43.5573
v  7.1573 105.1340 -5.2626
v  6.8930 105.8699 -2.2691
v  4.0666 105.0056 -7.4010
v  6.2536 105.9147 0.8654
v  5.9687 105.7398 3.1344
v  1.6250 104.9056 -8.3183
v  -1.4662 104.9790 -8.1504
v  -4.0517 105.0311 -7.2159
v  -6.8311 104.7040 -5.7164
v  -8.5308 105.0001 -2.8257
v  -8.2640 105.2053 -1.4052
v  -7.6641 105.2445 1.0693
v  -5.6092 105.6623 3.2870
v  -3.6902 105.9935 5.0869
v  0.0350 105.8033 6.7571
v  1.1701 105.9308 6.2083
v  4.3503 105.8457 4.8672
v  1.8142 105.9541 5.8760
v  -6.4505 105.7710 -2.5013
v  -3.9815 106.3732 -2.8102
# 110 vertices

vn 0.0299 0.4727 0.8807
vn -0.1298 0.4613 0.8777
vn 0.1076 0.4739 0.8740
vn -0.0022 0.3319 0.9433
vn 0.2564 0.3265 0.9097
vn 0.2769 0.3251 0.9042
vn 0.2822 0.1999 0.9383
vn 0.3303 0.1968 0.9232
vn 0.0209 0.2077 0.9780
vn -0.7178 0.0811 0.6915
vn -0.6336 0.1344 0.7619
vn -0.5222 0.3218 0.7897
vn -0.4255 0.4668 0.7753
vn -0.3094 0.1194 0.9434
vn -0.2440 0.0625 0.9678
vn -0.2868 0.2803 0.9161
vn -0.2527 0.4450 0.8591
vn -0.9853 0.1507 0.0799
vn -0.9952 0.0803 0.0552
vn -0.9547 0.2510 0.1597
vn -0.8638 0.4187 0.2803
vn -0.6838 0.1204 0.7197
vn -0.8602 0.1467 0.4884
vn -0.8481 0.1450 0.5097
vn -0.6088 0.0308 0.7927
vn -0.8239 0.0782 0.5612
vn -0.8140 0.0757 0.5759
vn -0.6998 0.2240 0.6783
vn -0.8346 0.2640 0.4834
vn -0.8379 0.2650 0.4773
vn -0.7267 0.4199 0.5436
vn -0.7865 0.4650 0.4065
vn -0.8027 0.4780 0.3566
vn -0.7157 0.1122 -0.6893
vn -0.6385 0.0032 -0.7696
vn -0.7031 0.2570 -0.6630
vn -0.6502 0.4309 -0.6258
vn -0.9642 0.1399 -0.2254
vn -0.9897 0.0303 -0.1398
vn -0.8999 0.3047 -0.3121
vn -0.7530 0.5313 -0.3882
vn -0.2122 0.1366 -0.9676
vn -0.1670 0.0913 -0.9817
vn -0.2226 0.3086 -0.9248
vn -0.2673 0.4831 -0.8338
vn -0.3914 0.1724 -0.9039
vn -0.4972 0.1163 -0.8598
vn -0.2647 0.3366 -0.9037
vn -0.1253 0.4572 -0.8805
vn 0.4760 0.1492 -0.8667
vn 0.5809 0.1005 -0.8078
vn 0.4318 0.3441 -0.8337
vn 0.3069 0.5032 -0.8078
vn 0.4427 0.1648 -0.8814
vn 0.3513 0.0975 -0.9312
vn 0.5070 0.3413 -0.7915
vn 0.5516 0.5253 -0.6480
vn 0.9751 0.1581 -0.1552
vn 0.9841 0.1030 -0.1449
vn 0.9206 0.2914 -0.2601
vn 0.8095 0.4822 -0.3350
vn 0.8095 0.1714 -0.5615
vn 0.7829 0.1411 -0.6060
vn 0.8511 0.3123 -0.4220
vn 0.8499 0.5075 -0.1420
vn 0.8167 0.1402 0.5597
vn 0.7491 0.0348 0.6616
vn 0.8397 0.2801 0.4652
vn 0.7673 0.5047 0.3957
vn 0.9849 0.1619 0.0605
vn 0.9957 0.0907 -0.0165
vn 0.9533 0.2733 0.1283
vn 0.8585 0.4803 0.1798
vn 0.1248 0.1407 0.9821
vn 0.1843 0.0491 0.9816
vn 0.0832 0.2296 0.9697
vn 0.1226 0.3997 0.9084
vn 0.3816 0.1041 0.9184
vn 0.4205 0.1044 0.9013
vn 0.0267 0.0946 0.9952
vn 0.6369 0.7222 -0.2698
vn 0.4603 0.7182 -0.5218
vn 0.6734 0.7378 0.0476
vn 0.6352 0.7078 0.3089
vn 0.2269 0.7185 -0.6575
vn -0.0672 0.7191 -0.6917
vn -0.2363 0.7183 -0.6543
vn -0.5535 0.6931 -0.4618
vn -0.5268 0.6699 -0.5232
vn -0.6482 0.7482 0.1415
vn -0.6513 0.7532 0.0918
vn -0.6387 0.7344 0.2297
vn -0.6226 0.7477 0.2308
vn -0.3276 0.8055 0.4938
vn -0.1351 0.7642 0.6307
vn -0.1325 0.7637 0.6318
vn 0.2961 0.7781 0.5539
vn 0.2603 0.7829 0.5651
vn 0.0533 0.7212 0.6907
vn 0.7008 0.7059 0.1026
vn -0.2886 0.9540 -0.0812
vn -0.2781 0.9602 -0.0275
vn -0.2606 0.9640 0.0536
vn -0.0581 0.9892 -0.1346
vn -0.1232 0.9913 -0.0468
vn 0.0085 0.9973 -0.0729
vn -0.2437 0.9652 -0.0948
vn -0.2434 0.9655 -0.0922
vn -0.2251 0.9729 0.0534
vn 0.1833 0.9806 -0.0691
vn 0.3114 0.9366 -0.1605
vn -0.0009 0.9982 0.0599
vn 0.0046 0.9975 -0.0704
vn 0.8136 0.0922 0.5741
vn 0.7642 0.1356 0.6306
vn 0.6586 0.2643 0.7045
vn 0.5744 0.4133 0.7066
vn 0.6182 0.6740 0.4045
vn 0.3745 0.9040 -0.2063
vn -0.2593 0.9252 -0.2771
vn -0.3106 0.9268 -0.2110
vn -0.6514 0.7574 -0.0456
vn -0.8498 0.5265 0.0256
vn -0.9523 0.2966 0.0717
vn -0.9848 0.1623 0.0621
vn -0.9860 0.1345 0.0985
# 126 vertex normals

vt 0.0612 0.3312 0.0000
vt 0.0391 0.3277 0.0000
vt 0.0668 0.2656 0.0000
vt 0.0954 0.2852 0.0000
vt 0.0912 0.2039 0.0000
vt 0.1300 0.2277 0.0000
vt 0.1765 0.1469 0.0000
vt 0.1365 0.1158 0.0000
vt 0.1672 0.0415 0.0000
vt 0.0933 0.0959 0.0000
vt 0.1216 0.0200 0.0000
vt 0.0546 0.1916 0.0000
vt 0.0378 0.2596 0.0000
vt 0.0268 0.3308 0.0000
vt 0.3942 0.7032 0.0000
vt 0.4117 0.8044 0.0000
vt 0.3864 0.8089 0.0000
vt 0.3542 0.7102 0.0000
vt 0.3723 0.6250 0.0000
vt 0.3318 0.6363 0.0000
vt 0.4249 0.8721 0.0000
vt 0.4054 0.8761 0.0000
vt 0.4355 0.9413 0.0000
vt 0.4196 0.9401 0.0000
vt 0.3421 0.8292 0.0000
vt 0.2996 0.7249 0.0000
vt 0.2680 0.6564 0.0000
vt 0.3697 0.8989 0.0000
vt 0.3958 0.9460 0.0000
vt 0.1912 0.5563 0.0000
vt 0.1584 0.5715 0.0000
vt 0.1136 0.4712 0.0000
vt 0.1472 0.4541 0.0000
vt 0.0823 0.4024 0.0000
vt 0.1160 0.3862 0.0000
vt 0.2127 0.6277 0.0000
vt 0.1869 0.6362 0.0000
vt 0.2267 0.6811 0.0000
vt 0.2055 0.6822 0.0000
vt 0.1390 0.5810 0.0000
vt 0.1128 0.6052 0.0000
vt 0.0550 0.5078 0.0000
vt 0.0922 0.4824 0.0000
vt 0.0200 0.4384 0.0000
vt 0.0624 0.4119 0.0000
vt 0.1721 0.6418 0.0000
vt 0.1530 0.6642 0.0000
vt 0.1933 0.6833 0.0000
vt 0.1820 0.6968 0.0000
vt 0.8008 0.2843 0.0000
vt 0.7985 0.3264 0.0000
vt 0.6891 0.3229 0.0000
vt 0.6905 0.2749 0.0000
vt 0.6091 0.3237 0.0000
vt 0.6161 0.2606 0.0000
vt 0.8705 0.2953 0.0000
vt 0.8705 0.3272 0.0000
vt 0.9139 0.3045 0.0000
vt 0.9099 0.3321 0.0000
vt 0.7954 0.3687 0.0000
vt 0.6962 0.3731 0.0000
vt 0.6075 0.3712 0.0000
vt 0.8716 0.3593 0.0000
vt 0.9116 0.3528 0.0000
vt 0.4410 0.0727 0.0000
vt 0.4708 0.1084 0.0000
vt 0.3677 0.1648 0.0000
vt 0.3498 0.1142 0.0000
vt 0.2680 0.1494 0.0000
vt 0.2952 0.2087 0.0000
vt 0.5121 0.0437 0.0000
vt 0.5265 0.0767 0.0000
vt 0.5499 0.0325 0.0000
vt 0.5608 0.0523 0.0000
vt 0.4884 0.1514 0.0000
vt 0.4036 0.2005 0.0000
vt 0.3343 0.2465 0.0000
vt 0.5555 0.0959 0.0000
vt 0.5805 0.0719 0.0000
vt 0.5173 0.4247 0.0000
vt 0.5529 0.4252 0.0000
vt 0.5406 0.5251 0.0000
vt 0.4889 0.5178 0.0000
vt 0.4724 0.5988 0.0000
vt 0.5305 0.6139 0.0000
vt 0.5389 0.3400 0.0000
vt 0.5638 0.3481 0.0000
vt 0.5496 0.3068 0.0000
vt 0.5699 0.3137 0.0000
vt 0.5898 0.4195 0.0000
vt 0.5879 0.5208 0.0000
vt 0.5776 0.6132 0.0000
vt 0.5934 0.3523 0.0000
vt 0.5911 0.3116 0.0000
vt 0.2976 0.4261 0.0000
vt 0.3363 0.4146 0.0000
vt 0.3734 0.5028 0.0000
vt 0.3311 0.5222 0.0000
vt 0.4078 0.5900 0.0000
vt 0.3573 0.6109 0.0000
vt 0.2847 0.3592 0.0000
vt 0.3131 0.3568 0.0000
vt 0.2761 0.3193 0.0000
vt 0.2980 0.3137 0.0000
vt 0.3808 0.3941 0.0000
vt 0.4226 0.4824 0.0000
vt 0.4583 0.5642 0.0000
vt 0.3476 0.3378 0.0000
vt 0.3166 0.2993 0.0000
vt 0.7925 0.1592 0.0000
vt 0.7831 0.1222 0.0000
vt 0.8745 0.0989 0.0000
vt 0.8905 0.1460 0.0000
vt 0.9616 0.0797 0.0000
vt 0.9800 0.1361 0.0000
vt 0.7265 0.1649 0.0000
vt 0.7306 0.1362 0.0000
vt 0.6775 0.1699 0.0000
vt 0.6715 0.1503 0.0000
vt 0.7795 0.0798 0.0000
vt 0.8635 0.0460 0.0000
vt 0.9499 0.0200 0.0000
vt 0.7154 0.1079 0.0000
vt 0.6662 0.1295 0.0000
vt 0.2211 0.0708 0.0000
vt 0.5730 0.2660 0.0000
vt 0.5809 0.2606 0.0000
vt 0.5619 0.2626 0.0000
vt 0.2680 0.2680 0.0000
vt 0.2768 0.2632 0.0000
vt 0.2833 0.2606 0.0000
vt 0.6014 0.0288 0.0000
vt 0.6069 0.0347 0.0000
vt 0.5975 0.0200 0.0000
vt 0.9585 0.3297 0.0000
vt 0.9607 0.3383 0.0000
vt 0.9562 0.3197 0.0000
vt 0.2183 0.7231 0.0000
vt 0.2106 0.7305 0.0000
vt 0.2228 0.7222 0.0000
vt 0.2307 0.7204 0.0000
vt 0.4234 0.9772 0.0000
vt 0.4142 0.9790 0.0000
vt 0.4313 0.9761 0.0000
vt 0.0327 0.3676 0.0000
vt 0.0200 0.3665 0.0000
vt 0.0353 0.3704 0.0000
vt 0.6258 0.1639 0.0000
vt 0.6210 0.1568 0.0000
vt 0.6277 0.1711 0.0000
vt 0.2770 0.8560 0.0000
vt 0.2757 0.8494 0.0000
vt 0.2829 0.8458 0.0000
vt 0.2924 0.8465 0.0000
vt 0.3038 0.8882 0.0000
vt 0.2969 0.8947 0.0000
vt 0.2859 0.8913 0.0000
vt 0.3101 0.8806 0.0000
vt 0.2790 0.8872 0.0000
vt 0.3148 0.8754 0.0000
vt 0.2734 0.8795 0.0000
vt 0.3159 0.8681 0.0000
vt 0.2813 0.8623 0.0000
vt 0.3006 0.8478 0.0000
vt 0.3130 0.8579 0.0000
vt 0.3122 0.8539 0.0000
vt 0.2706 0.8715 0.0000
vt 0.3134 0.8601 0.0000
vt 0.2539 0.0920 0.0000
vt 0.2021 0.1680 0.0000
vt 0.1537 0.2438 0.0000
vt 0.1117 0.2975 0.0000
vt 0.0744 0.3350 0.0000
vt 0.0369 0.3721 0.0000
vt 0.2680 0.8616 0.0000
vt 0.2717 0.8516 0.0000
# 176 texture coords

o Robe_Low
g Robe_Low
usemtl Mat_Robe
s 1
f 1/1/1 2/2/2 3/3/2 4/4/3 
s 2
f 3/3/4 5/5/4 6/6/5 4/4/6 
s 3
f 7/7/7 6/6/8 5/5/9 8/8/9 
s off
f 9/9/10 8/8/10 10/10/10 11/11/10 
f 5/5/11 12/12/11 10/10/11 8/8/11 
f 12/12/12 5/5/12 3/3/12 13/13/12 
f 13/13/13 3/3/13 2/2/13 14/14/13 
f 10/15/14 12/16/14 15/17/14 16/18/14 
f 11/19/15 10/15/15 16/18/15 17/20/15 
f 12/16/16 13/21/16 18/22/16 15/17/16 
f 13/21/17 14/23/17 19/24/17 18/22/17 
f 16/18/18 15/17/18 20/25/18 21/26/18 
f 17/20/19 16/18/19 21/26/19 22/27/19 
f 18/22/20 23/28/20 20/25/20 15/17/20 
f 19/24/21 24/29/21 23/28/21 18/22/21 
s 4
f 20/30/22 25/31/23 26/32/24 21/33/22 
s 5
f 21/33/25 26/32/26 27/34/27 22/35/25 
s 6
f 23/36/28 28/37/29 25/31/30 20/30/28 
s 7
f 23/36/31 24/38/31 29/39/32 28/37/33 
s off
f 30/40/34 31/41/34 32/42/34 33/43/34 
f 33/43/35 32/42/35 34/44/35 35/45/35 
f 36/46/36 37/47/36 31/41/36 30/40/36 
f 38/48/37 39/49/37 37/47/37 36/46/37 
f 31/50/38 40/51/38 41/52/38 32/53/38 
f 32/53/39 41/52/39 42/54/39 34/55/39 
f 37/56/40 43/57/40 40/51/40 31/50/40 
f 39/58/41 44/59/41 43/57/41 37/56/41 
f 40/51/42 45/60/42 46/61/42 41/52/42 
f 41/52/43 46/61/43 47/62/43 42/54/43 
f 40/51/44 43/57/44 48/63/44 45/60/44 
f 44/59/45 49/64/45 48/63/45 43/57/45 
f 45/65/46 50/66/46 51/67/46 46/68/46 
f 47/69/47 46/68/47 51/67/47 52/70/47 
f 48/71/48 53/72/48 50/66/48 45/65/48 
f 48/71/49 49/73/49 54/74/49 53/72/49 
f 50/66/50 55/75/50 56/76/50 51/67/50 
f 51/67/51 56/76/51 57/77/51 52/70/51 
f 53/72/52 58/78/52 55/75/52 50/66/52 
f 54/74/53 59/79/53 58/78/53 53/72/53 
f 55/80/54 60/81/54 61/82/54 56/83/54 
f 57/84/55 56/83/55 61/82/55 62/85/55 
f 58/86/56 63/87/56 60/81/56 55/80/56 
f 58/86/57 59/88/57 64/89/57 63/87/57 
f 60/81/58 65/90/58 66/91/58 61/82/58 
f 61/82/59 66/91/59 67/92/59 62/85/59 
f 63/87/60 68/93/60 65/90/60 60/81/60 
f 64/89/61 69/94/61 68/93/61 63/87/61 
f 65/95/62 70/96/62 71/97/62 66/98/62 
f 66/98/63 71/97/63 72/99/63 67/100/63 
f 65/95/64 68/101/64 73/102/64 70/96/64 
f 68/101/65 69/103/65 74/104/65 73/102/65 
f 71/97/66 70/96/66 75/105/66 76/106/66 
f 71/97/67 76/106/67 77/107/67 72/99/67 
f 73/102/68 78/108/68 75/105/68 70/96/68 
f 74/104/69 79/109/69 78/108/69 73/102/69 
f 75/110/70 80/111/70 81/112/70 76/113/70 
f 76/113/71 81/112/71 82/114/71 77/115/71 
f 75/110/72 78/116/72 83/117/72 80/111/72 
f 78/116/73 79/118/73 84/119/73 83/117/73 
f 81/112/74 80/111/74 85/120/74 86/121/74 
f 82/114/75 81/112/75 86/121/75 87/122/75 
f 80/111/76 83/117/76 88/123/76 85/120/76 
f 84/119/77 89/124/77 88/123/77 83/117/77 
s 8
f 90/125/78 7/7/79 8/8/80 9/9/80 
s off
f 69/94/81 64/89/81 91/126/81 92/127/81 
f 59/88/82 93/128/82 91/126/82 64/89/82 
f 74/104/83 69/103/83 92/129/83 94/130/83 
f 79/109/84 74/104/84 94/130/84 95/131/84 
f 59/79/85 54/74/85 96/132/85 93/133/85 
f 54/74/86 49/73/86 97/134/86 96/132/86 
f 44/59/87 98/135/87 97/136/87 49/64/87 
f 44/59/88 39/58/88 99/137/88 98/135/88 
f 39/49/89 38/48/89 100/138/89 99/139/89 
s 9
f 101/140/90 29/39/91 24/38/92 102/141/92 
s off
f 19/24/93 103/142/93 102/143/93 24/29/93 
f 14/23/94 104/144/94 103/142/94 19/24/94 
f 14/14/95 2/2/95 105/145/95 104/146/95 
s 10
f 2/2/96 1/1/97 106/147/98 105/145/96 
s off
f 84/119/99 107/148/99 108/149/99 89/124/99 
f 95/150/100 107/148/100 84/119/100 79/118/100 
s 11
f 109/151/101 101/152/102 102/153/103 103/154/103 
s off
f 92/155/104 91/156/104 93/157/104 94/158/104 
f 94/158/105 93/157/105 96/159/105 95/160/105 
f 96/159/106 97/161/106 107/162/106 95/160/106 
s 12
f 110/163/107 109/151/108 103/154/109 104/164/109 
s 13
f 106/165/110 110/163/111 104/164/112 105/166/112 
s off
f 97/161/113 98/167/113 108/168/113 107/162/113 
s 8
f 7/7/79 90/125/78 87/169/114 86/170/114 
s 3
f 6/6/8 7/7/7 86/170/115 85/171/115 
s 2
f 4/4/6 6/6/5 85/171/116 88/172/116 
s 1
f 89/173/117 1/1/1 4/4/3 88/172/117 
s 10
f 1/1/97 89/173/118 108/174/118 106/147/98 
s 13
f 110/163/111 106/165/110 108/168/119 98/167/119 
s 12
f 99/175/120 109/151/108 110/163/107 98/167/120 
s 11
f 100/176/121 101/152/102 109/151/101 99/175/121 
s 9
f 29/39/91 101/140/90 100/138/122 38/48/122 
s 7
f 28/37/33 29/39/32 38/48/123 36/46/123 
s 6
f 25/31/30 28/37/29 36/46/124 30/40/124 
s 4
f 25/31/23 30/40/125 33/43/125 26/32/24 
s 5
f 26/32/26 33/43/126 35/45/126 27/34/27 
# 100 polygons

